<?xml version="1.0" encoding="UTF-8"?>
<!DOCTYPE svg PUBLIC "-//W3C//DTD SVG 1.1//EN" "http://www.w3.org/Graphics/SVG/1.1/DTD/svg11.dtd">
<!-- Creator: CorelDRAW 2018 (64-Bit) -->
<svg xmlns="http://www.w3.org/2000/svg" xml:space="preserve" width="1345px" height="332px" version="1.1" style="shape-rendering:geometricPrecision; text-rendering:geometricPrecision; image-rendering:optimizeQuality; fill-rule:evenodd; clip-rule:evenodd"
viewBox="0 0 2798.84 690.84"
 xmlns:xlink="http://www.w3.org/1999/xlink">
 <defs>
  <style type="text/css">
   <![CDATA[
    .fil4 {fill:#332C2B;fill-rule:nonzero}
    .fil3 {fill:#BFC826;fill-rule:nonzero}
    .fil2 {fill:#8E509A;fill-rule:nonzero}
    .fil1 {fill:#46BBB8;fill-rule:nonzero}
    .fil0 {fill:#1E1B1E;fill-rule:nonzero}
   ]]>
  </style>
 </defs>
 <g id="Layer_x0020_1">
  <metadata id="CorelCorpID_0Corel-Layer"/>
  <g id="_1830075372864">
   <polygon class="fil0" points="0,115.14 115.13,115.14 115.13,0 0,0 "/>
   <polygon class="fil1" points="115.13,115.14 230.26,115.14 230.26,0 115.13,0 "/>
   <polygon class="fil0" points="230.27,115.14 345.44,115.14 345.44,0 230.27,0 "/>
   <polygon class="fil0" points="0,460.57 115.13,460.57 115.13,345.43 0,345.43 "/>
   <polygon class="fil2" points="0,345.43 115.13,345.43 115.13,230.28 0,230.28 "/>
   <polygon class="fil3" points="115.13,575.7 230.26,575.7 230.26,460.56 115.13,460.56 "/>
   <polygon class="fil0" points="230.27,575.7 345.44,575.7 345.44,460.56 230.27,460.56 "/>
   <polygon class="fil0" points="345.43,230.28 460.55,230.28 460.55,115.14 345.43,115.14 "/>
   <polygon class="fil1" points="345.43,345.43 460.55,345.43 460.55,230.28 345.43,230.28 "/>
   <polygon class="fil0" points="345.43,460.57 460.55,460.57 460.55,345.43 345.43,345.43 "/>
   <polygon class="fil2" points="575.68,115.14 690.8,115.14 690.8,0 575.68,0 "/>
   <polygon class="fil0" points="460.55,690.84 575.68,690.84 575.68,575.7 460.55,575.7 "/>
   <polygon class="fil1" points="345.43,690.84 460.55,690.84 460.55,575.7 345.43,575.7 "/>
   <polygon class="fil0" points="575.68,575.7 690.8,575.7 690.8,460.56 575.68,460.56 "/>
   <polygon class="fil0" points="690.8,230.28 805.98,230.28 805.98,115.14 690.8,115.14 "/>
   <polygon class="fil3" points="690.8,345.43 805.98,345.43 805.98,230.28 690.8,230.28 "/>
   <polygon class="fil0" points="690.8,460.57 805.98,460.57 805.98,345.43 690.8,345.43 "/>
   <path class="fil0" d="M999.56 352.35l88.42 0c62.19,0 103.21,-39.33 103.21,-117.33 0,-78 -41.02,-117.33 -103.21,-117.33l-88.42 0 0 234.66zm51.1 -45.39l0 -143.89 37.32 0c30.25,0 49.08,16.48 49.08,53.8l0 36.3c0,37.32 -18.83,53.79 -49.08,53.79l-37.32 0zm338.54 45.39l0 -38.66 -16.47 0 0 -77.33c0,-41.68 -25.55,-64.55 -75.31,-64.55 -36.98,0 -57.15,12.78 -71.27,33.62l29.59 26.23c7.73,-10.76 18.15,-20.85 37.99,-20.85 20.84,0 29.24,10.76 29.24,27.91l0 11.09 -27.9 0c-46.73,0 -75.64,17.82 -75.64,55.14 0,30.59 19.5,51.43 54.8,51.43 26.89,0 46.39,-12.1 51.77,-34.96l2.02 0c3.02,18.83 15.8,30.93 33.62,30.93l27.56 0zm-96.48 -30.59c-14.8,0 -23.2,-6.05 -23.2,-18.83l0 -5.04c0,-12.78 10.09,-19.84 29.25,-19.84l24.2 0 0 20.85c0,16.13 -13.78,22.86 -30.25,22.86zm179.52 30.59l0 -114.31c0,-17.48 14.79,-25.88 29.25,-25.88 16.14,0 24.21,10.76 24.21,33.62l0 106.57 49.75 0 0 -114.31c0,-17.48 14.46,-25.88 29.25,-25.88 16.47,0 24.21,10.76 24.21,33.62l0 106.57 49.75 0 0 -110.61c0,-44.37 -18.82,-69.93 -52.78,-69.93 -26.89,0 -47.4,15.81 -53.79,35.64l-1.01 0c-7.73,-23.2 -25.21,-35.64 -49.42,-35.64 -26.22,0 -41.01,15.13 -47.4,33.96l-2.02 0 0 -29.92 -49.75 0 0 176.5 49.75 0zm408.81 0l0 -38.66 -16.48 0 0 -77.33c0,-41.68 -25.55,-64.55 -75.3,-64.55 -36.98,0 -57.15,12.78 -71.27,33.62l29.58 26.23c7.73,-10.76 18.15,-20.85 37.99,-20.85 20.84,0 29.25,10.76 29.25,27.91l0 11.09 -27.9 0c-46.74,0 -75.65,17.82 -75.65,55.14 0,30.59 19.5,51.43 54.8,51.43 26.9,0 46.39,-12.1 51.77,-34.96l2.02 0c3.02,18.83 15.8,30.93 33.62,30.93l27.57 0zm-96.49 -30.59c-14.79,0 -23.2,-6.05 -23.2,-18.83l0 -5.04c0,-12.78 10.09,-19.84 29.25,-19.84l24.21 0 0 20.85c0,16.13 -13.79,22.86 -30.26,22.86zm154.65 -164.74c20.17,0 28.91,-10.42 28.91,-24.54l0 -7.4c0,-14.12 -8.74,-24.54 -28.91,-24.54 -20.17,0 -28.92,10.42 -28.92,24.54l0 7.4c0,14.12 8.75,24.54 28.92,24.54zm-24.88 195.33l49.75 0 0 -176.5 -49.75 0 0 176.5zm193.31 -234.66l0 41.01 71.27 0 0 123.39c0,20.17 -12.1,29.25 -26.9,29.25 -15.8,0 -25.55,-10.76 -29.25,-30.6l-47.73 9.41c6.72,39.34 31.26,65.9 77.66,65.9 48.41,0 77.32,-28.58 77.32,-71.61l0 -166.75 -122.37 0zm328.12 234.66l0 -38.66 -16.48 0 0 -77.33c0,-41.68 -25.55,-64.55 -75.3,-64.55 -36.98,0 -57.15,12.78 -71.27,33.62l29.58 26.23c7.73,-10.76 18.15,-20.85 37.99,-20.85 20.84,0 29.25,10.76 29.25,27.91l0 11.09 -27.9 0c-46.74,0 -75.65,17.82 -75.65,55.14 0,30.59 19.5,51.43 54.8,51.43 26.9,0 46.39,-12.1 51.77,-34.96l2.02 0c3.03,18.83 15.8,30.93 33.62,30.93l27.57 0zm-96.49 -30.59c-14.79,0 -23.2,-6.05 -23.2,-18.83l0 -5.04c0,-12.78 10.09,-19.84 29.25,-19.84l24.21 0 0 20.85c0,16.13 -13.78,22.86 -30.26,22.86zm208.77 -63.54l-13.11 51.1 -2.01 0 -12.78 -51.1 -25.89 -82.37 -49.42 0 61.86 185.58 -6.05 19.5 -33.28 0 0 38.66 30.93 0c30.26,0 45.05,-12.78 54.13,-40.01l67.9 -203.73 -46.39 0 -25.89 82.37zm250.8 94.13l0 -38.66 -16.47 0 0 -77.33c0,-41.68 -25.55,-64.55 -75.31,-64.55 -36.98,0 -57.15,12.78 -71.27,33.62l29.58 26.23c7.74,-10.76 18.16,-20.85 37.99,-20.85 20.85,0 29.25,10.76 29.25,27.91l0 11.09 -27.9 0c-46.73,0 -75.64,17.82 -75.64,55.14 0,30.59 19.49,51.43 54.79,51.43 26.9,0 46.4,-12.1 51.78,-34.96l2.01 0c3.03,18.83 15.81,30.93 33.62,30.93l27.57 0zm-96.48 -30.59c-14.8,0 -23.2,-6.05 -23.2,-18.83l0 -5.04c0,-12.78 10.08,-19.84 29.25,-19.84l24.2 0 0 20.85c0,16.13 -13.78,22.86 -30.25,22.86z"/>
   <polygon class="fil4" points="1071.62,513.77 1071.62,497.81 999.56,497.81 999.56,513.77 1026.58,513.77 1026.58,593.06 1044.6,593.06 1044.6,513.77 "/>
   <path id="1" class="fil4" d="M1105.19 594.7c13.23,0 23.6,-5.05 29.47,-13.1l-9.41 -10.51c-4.37,5.59 -9.56,9.69 -18.15,9.69 -11.47,0 -17.34,-6.96 -17.34,-17.2l0 -1.77 47.36 0 0 -5.73c0,-19.52 -10.24,-35.89 -32.48,-35.89 -20.88,0 -33.03,14.6 -33.03,37.11 0,22.79 12.56,37.4 33.58,37.4zm-0.28 -61.41c9.01,0 14.06,6.68 14.06,16.51l0 1.23 -29.21 0 0 -1.09c0,-9.83 6.01,-16.65 15.15,-16.65z"/>
   <polygon id="2" class="fil4" points="1142.99,593.06 1161.55,593.06 1176.56,568.5 1177.1,568.5 1192.12,593.06 1212.04,593.06 1187.75,557.17 1211.9,521.82 1193.34,521.82 1178.74,545.43 1178.19,545.43 1163.46,521.82 1143.53,521.82 1167.28,556.9 "/>
   <path id="3" class="fil4" d="M1246.98 593.06l12.55 0 0 -13.92 -13.51 0 0 -43.4 14.6 0 0 -13.92 -14.6 0 0 -19.51 -15.69 0 0 12.14c0,4.92 -1.64,7.37 -6.83,7.37l-5.45 0 0 13.92 10.5 0 0 39.17c0,11.6 6.42,18.15 18.43,18.15z"/>
   <path id="4" class="fil4" d="M1284.5 511.45c7.1,0 10.24,-3.68 10.24,-8.73l0 -2.73c0,-5.05 -3.14,-8.74 -10.24,-8.74 -7.23,0 -10.23,3.69 -10.23,8.74l0 2.73c0,5.05 3,8.73 10.23,8.73zm-8.73 81.61l17.47 0 0 -71.24 -17.47 0 0 71.24z"/>
   <path id="5" class="fil4" d="M1340.32 593.06l0 -13.92 -9.42 0 0 -87.07 -17.46 0 0 83.79c0,10.92 5.59,17.2 17.46,17.2l9.42 0z"/>
   <path id="6" class="fil4" d="M1382.35 594.7c13.24,0 23.61,-5.05 29.48,-13.1l-9.42 -10.51c-4.37,5.59 -9.55,9.69 -18.15,9.69 -11.46,0 -17.33,-6.96 -17.33,-17.2l0 -1.77 47.35 0 0 -5.73c0,-19.52 -10.23,-35.89 -32.47,-35.89 -20.88,0 -33.03,14.6 -33.03,37.11 0,22.79 12.56,37.4 33.57,37.4zm-0.27 -61.41c9,0 14.05,6.68 14.05,16.51l0 1.23 -29.2 0 0 -1.09c0,-9.83 6.01,-16.65 15.15,-16.65z"/>
   <path id="7" class="fil4" d="M1481.02 593.06l0 -36.3 24.83 0c17.61,0 28.25,-11.74 28.25,-29.48 0,-17.6 -10.64,-29.47 -28.25,-29.47l-42.85 0 0 95.25 18.02 0zm0 -79.56l23.2 0c6.96,0 11.19,3.68 11.19,10.64l0 6.28c0,6.96 -4.23,10.78 -11.19,10.78l-23.2 0 0 -27.7z"/>
   <path id="8" class="fil4" d="M1565.49 593.06l0 -43.67c0,-7.78 6.14,-11.06 17.88,-11.06l5.46 0 0 -16.51 -3.82 0c-11.33,0 -17.06,7.24 -18.84,14.74l-0.68 0 0 -14.74 -17.47 0 0 71.24 17.47 0z"/>
   <path id="9" class="fil4" d="M1610.39 511.45c7.1,0 10.23,-3.68 10.23,-8.73l0 -2.73c0,-5.05 -3.13,-8.74 -10.23,-8.74 -7.23,0 -10.24,3.69 -10.24,8.74l0 2.73c0,5.05 3.01,8.73 10.24,8.73zm-8.74 81.61l17.47 0 0 -71.24 -17.47 0 0 71.24z"/>
   <path id="10" class="fil4" d="M1656.79 593.06l0 -47.08c0,-7.65 6.96,-11.47 14.19,-11.47 8.33,0 11.74,5.19 11.74,15.29l0 43.26 17.46 0 0 -45.03c0,-17.74 -8.18,-27.84 -22.79,-27.84 -11.05,0 -17.05,5.86 -19.92,13.51l-0.68 0 0 -11.88 -17.47 0 0 71.24 17.47 0z"/>
   <path id="11" class="fil4" d="M1741.8 593.06l12.56 0 0 -13.92 -13.51 0 0 -43.4 14.6 0 0 -13.92 -14.6 0 0 -19.51 -15.69 0 0 12.14c0,4.92 -1.64,7.37 -6.83,7.37l-5.45 0 0 13.92 10.5 0 0 39.17c0,11.6 6.42,18.15 18.42,18.15z"/>
   <path id="12" class="fil4" d="M1779.33 511.45c7.1,0 10.24,-3.68 10.24,-8.73l0 -2.73c0,-5.05 -3.14,-8.74 -10.24,-8.74 -7.23,0 -10.23,3.69 -10.23,8.74l0 2.73c0,5.05 3,8.73 10.23,8.73zm-8.73 81.61l17.47 0 0 -71.24 -17.47 0 0 71.24z"/>
   <path id="13" class="fil4" d="M1825.73 593.06l0 -47.08c0,-7.65 6.96,-11.47 14.2,-11.47 8.32,0 11.73,5.19 11.73,15.29l0 43.26 17.47 0 0 -45.03c0,-17.74 -8.19,-27.84 -22.79,-27.84 -11.05,0 -17.06,5.86 -19.92,13.51l-0.69 0 0 -11.88 -17.46 0 0 71.24 17.46 0z"/>
   <path id="14" class="fil4" d="M1952.79 599.06c0,-12.82 -7.51,-20.33 -24.98,-20.33l-19.1 0c-6.28,0 -9.28,-1.77 -9.28,-5.32 0,-3.14 2.32,-5.19 5.05,-6.42 3.13,0.82 6.82,1.23 10.91,1.23 19.38,0 29.48,-9.55 29.48,-23.88 0,-8.73 -3.68,-15.69 -11.05,-19.79l0 -1.91 15.14 0 0 -13.37 -11.05 0c-6.55,0 -10.1,3.41 -10.1,10.37l0 2.32c-3.55,-1.23 -8.05,-1.77 -12.42,-1.77 -19.24,0 -29.47,9.68 -29.47,24.15 0,9.42 4.36,16.79 12.96,20.74l0 0.55c-6.82,1.5 -13.1,5.18 -13.1,12.55 0,5.74 3.28,10.38 9.15,11.88l0 1.5c-7.92,1.23 -12.7,5.73 -12.7,13.65 0,10.5 9.15,16.78 33.16,16.78 27.3,0 37.4,-8.05 37.4,-22.93zm-16.38 2.05c0,6.01 -5.05,8.87 -16.38,8.87l-8.73 0c-10.92,0 -15.01,-3.27 -15.01,-8.73 0,-2.87 1.09,-5.46 3.68,-7.37l24.29 0c8.88,0 12.15,2.73 12.15,7.23zm-21.02 -44.76c-8.32,0 -12.82,-3.82 -12.82,-10.92l0 -2.32c0,-7.23 4.5,-10.92 12.82,-10.92 8.33,0 12.83,3.69 12.83,10.92l0 2.32c0,7.1 -4.5,10.92 -12.83,10.92l0 0z"/>
   <path id="15" class="fil4" d="M2025.8 594.7c22.79,0 35.75,-12.29 35.75,-30.3 0,-15.69 -9.01,-24.29 -28.25,-27.7l-8.87 -1.64c-9.14,-1.64 -13.23,-4.64 -13.23,-11.87 0,-7.1 5.32,-11.19 15.55,-11.19 10.1,0 16.65,3.95 21.29,9.82l12.28 -11.6c-7.64,-9.14 -18.28,-14.05 -32.61,-14.05 -21.29,0 -34.53,11.05 -34.53,28.11 0,15.56 9.28,24.7 28.52,27.7l9.01 1.37c9.96,1.77 12.97,5.73 12.97,12.14 0,8.05 -5.74,13.38 -16.79,13.38 -9.83,0 -17.88,-4.1 -24.43,-11.74l-12.15 11.74c8.06,9.41 19.25,15.83 35.49,15.83z"/>
   <path id="16" class="fil4" d="M2078.47 620.35l17.47 0 0 -39.16 0.55 0c2.73,8.05 10.23,13.51 19.65,13.51 18.01,0 27.97,-13.51 27.97,-37.4 0,-23.74 -9.96,-37.11 -27.97,-37.11 -9.42,0 -17.06,5.18 -19.65,13.37l-0.55 0 0 -11.74 -17.47 0 0 98.53zm32.07 -40.12c-8.32,0 -14.6,-4.23 -14.6,-11.6l0 -22.65c0,-6.96 6.28,-11.47 14.6,-11.47 9.01,0 15.29,6.69 15.29,16.79l0 12.28c0,10.1 -6.28,16.65 -15.29,16.65z"/>
   <path id="17" class="fil4" d="M2189.15 594.7c13.24,0 23.61,-5.05 29.48,-13.1l-9.42 -10.51c-4.37,5.59 -9.55,9.69 -18.15,9.69 -11.46,0 -17.33,-6.96 -17.33,-17.2l0 -1.77 47.35 0 0 -5.73c0,-19.52 -10.23,-35.89 -32.48,-35.89 -20.88,0 -33.02,14.6 -33.02,37.11 0,22.79 12.55,37.4 33.57,37.4zm-0.27 -61.41c9,0 14.05,6.68 14.05,16.51l0 1.23 -29.2 0 0 -1.09c0,-9.83 6,-16.65 15.15,-16.65z"/>
   <path id="18" class="fil4" d="M2264.62 594.7c13.78,0 23.74,-6.28 28.38,-18.84l-13.37 -6.41c-2.59,6.41 -6.69,11.19 -15.01,11.19 -9.69,0 -14.61,-6.69 -14.61,-16.65l0 -12.96c0,-9.97 4.92,-16.79 14.61,-16.79 7.5,0 12,4.37 13.64,10.37l14.33 -6.41c-4.23,-11.19 -13.65,-18.01 -27.97,-18.01 -21.02,0 -32.89,14.32 -32.89,37.11 0,22.93 11.87,37.4 32.89,37.4z"/>
   <path id="19" class="fil4" d="M2315.24 511.45c7.1,0 10.24,-3.68 10.24,-8.73l0 -2.73c0,-5.05 -3.14,-8.74 -10.24,-8.74 -7.23,0 -10.23,3.69 -10.23,8.74l0 2.73c0,5.05 3,8.73 10.23,8.73zm-8.73 81.61l17.47 0 0 -71.24 -17.47 0 0 71.24z"/>
   <path id="20" class="fil4" d="M2361.78 594.7c10.65,0 18.42,-4.78 20.74,-13.92l0.82 0c1.09,7.37 5.73,12.28 13.24,12.28l9.69 0 0 -13.92 -7.1 0 0 -33.57c0,-16.24 -10.23,-25.38 -29.47,-25.38 -14.33,0 -22.66,5.45 -27.84,13.64l10.37 9.28c3.41,-4.91 8.05,-9.01 16.24,-9.01 9.28,0 13.23,4.64 13.23,12.56l0 5.18 -12.14 0c-19.38,0 -30.43,7.24 -30.43,21.84 0,12.69 8.19,21.02 22.65,21.02zm5.87 -12.7c-6.82,0 -10.78,-2.86 -10.78,-8.59l0 -2.32c0,-5.6 4.5,-8.74 13.64,-8.74l11.19 0 0 9.42c0,6.69 -6.27,10.23 -14.05,10.23z"/>
   <path id="21" class="fil4" d="M2447.34 593.06l0 -13.92 -9.41 0 0 -87.07 -17.47 0 0 83.79c0,10.92 5.59,17.2 17.47,17.2l9.41 0z"/>
   <path id="22" class="fil4" d="M2469.31 511.45c7.1,0 10.24,-3.68 10.24,-8.73l0 -2.73c0,-5.05 -3.14,-8.74 -10.24,-8.74 -7.23,0 -10.23,3.69 -10.23,8.74l0 2.73c0,5.05 3,8.73 10.23,8.73zm-8.73 81.61l17.47 0 0 -71.24 -17.47 0 0 71.24z"/>
   <path id="23" class="fil4" d="M2521.58 594.7c17.74,0 29.34,-9.55 29.34,-23.34 0,-11.87 -7.5,-18.83 -23.06,-21.01l-7.23 -0.96c-6.69,-1.09 -9.28,-3.28 -9.28,-8.05 0,-4.37 3.27,-7.37 10.78,-7.37 6.96,0 12.96,3.27 17.06,7.64l10.23 -10.23c-6.82,-7.1 -13.92,-11.19 -27.84,-11.19 -16.24,0 -27.02,8.73 -27.02,22.51 0,12.97 8.46,19.65 23.75,21.56l7.09 0.96c6.28,0.82 8.74,3.41 8.74,7.51 0,5.04 -3.55,8.18 -11.88,8.18 -8.05,0 -14.33,-3.68 -19.51,-9.69l-10.65 10.38c7.1,8.18 15.97,13.1 29.48,13.1z"/>
   <path id="24" class="fil4" d="M2587.5 593.06l12.55 0 0 -13.92 -13.51 0 0 -43.4 14.6 0 0 -13.92 -14.6 0 0 -19.51 -15.69 0 0 12.14c0,4.92 -1.64,7.37 -6.83,7.37l-5.46 0 0 13.92 10.51 0 0 39.17c0,11.6 6.42,18.15 18.43,18.15z"/>
  </g>
 </g>
</svg>
